<svg width="20" height="20" viewBox="0 0 20 20" fill="none" xmlns="http://www.w3.org/2000/svg">
<g clip-path="url(#clip0_17_38)">
<path d="M10.0022 20.0044C15.5263 20.0044 20.0044 15.5263 20.0044 10.0022C20.0044 4.47814 15.5263 0 10.0022 0C4.47814 0 0 4.47814 0 10.0022C0 15.5263 4.47814 20.0044 10.0022 20.0044Z" fill="#80BA63"/>
<path fill-rule="evenodd" clip-rule="evenodd" d="M14.2447 6.14333L8.85994 11.7045L6.3682 8.95259C5.99775 8.54686 5.3671 8.51157 4.96137 8.88203C4.55564 9.25248 4.52036 9.88313 4.89081 10.2889L8.09698 13.8302C8.46743 14.2404 9.09808 14.2712 9.50382 13.9008C9.52146 13.8875 9.53469 13.8699 9.54792 13.8567L15.6692 7.53252C16.0529 7.13561 16.0441 6.50496 15.6516 6.12128C15.2591 5.73759 14.624 5.74642 14.2403 6.13892L14.2447 6.14333Z" fill="white"/>
</g>
</svg>
