<svg width="33" height="33" viewBox="0 0 33 33" fill="none" xmlns="http://www.w3.org/2000/svg">
<g clip-path="url(#clip0_17_22)">
<path d="M32.887 9.54838C32.887 9.10814 32.7146 8.6917 32.3994 8.3764L30.9843 6.9605L32.5124 5.43156C32.8216 5.12221 33 4.69387 33 4.25363C33 3.81339 32.8276 3.391 32.5124 3.07569L29.9081 0.469961C29.2838 -0.154701 28.1838 -0.154701 27.5535 0.469961L26.0254 1.9989L24.6103 0.582995C23.9859 -0.0357174 22.8919 -0.0416666 22.2735 0.582995L20.3411 2.51647L18.8427 1.01728C18.5038 0.678182 18.0162 0.48186 17.5108 0.48186C17.0054 0.48186 16.5178 0.678182 16.1789 1.01728L13.7946 3.4029C13.4378 3.75985 13.2416 4.22983 13.2416 4.73551C13.2416 5.24119 13.4378 5.71117 13.7946 6.06812L17.8794 10.1552L10.1854 17.8534L6.10053 13.7663C5.76161 13.4272 5.27404 13.2309 4.76863 13.2309C4.26323 13.2309 3.77566 13.4272 3.43674 13.7663L1.05242 16.152C0.69566 16.5089 0.499444 16.9848 0.499444 17.4846C0.499444 17.9843 0.69566 18.4602 1.05242 18.8172L2.5508 20.3164L0.618363 22.2498C-0.0237994 22.8924 -0.0237994 23.9454 0.618363 24.5879L2.0335 26.0038L0.50539 27.5327C0.196201 27.8421 0.0178223 28.2704 0.0178223 28.7106C0.0178223 29.1509 0.190255 29.5733 0.50539 29.8886L3.10971 32.4943C3.42485 32.8096 3.84107 32.9821 4.28701 32.9821C4.73296 32.9821 5.15512 32.8037 5.46431 32.4943L6.99242 30.9654L8.40755 32.3813C9.03188 33.0059 10.12 33.0059 10.7443 32.3813L12.6767 30.4478L14.1751 31.947C14.8886 32.6609 16.1254 32.6609 16.8448 31.947L19.2292 29.5614C19.5859 29.2044 19.7821 28.7285 19.7821 28.2288C19.7821 27.729 19.5859 27.2531 19.2292 26.8961L15.1443 22.8091L22.8384 15.1108L26.9173 19.1979C27.6308 19.9118 28.8735 19.9118 29.587 19.1979L31.9773 16.8123C32.334 16.4554 32.5303 15.9794 32.5303 15.4737C32.5303 14.9681 32.334 14.4981 31.9773 14.1411L30.4789 12.6419L32.4113 10.7085C32.7265 10.3991 32.8989 9.98267 32.8989 9.54243L32.887 9.54838ZM4.9589 14.9145L18.0816 28.0443C18.1351 28.0979 18.1648 28.1693 18.1648 28.2407C18.1648 28.312 18.1351 28.3834 18.0816 28.437L15.6973 30.8226C15.5962 30.9237 15.4 30.9237 15.2989 30.8226L2.17025 17.6987C2.11674 17.6452 2.08701 17.5738 2.08701 17.5024C2.08701 17.431 2.11674 17.3537 2.17025 17.3001L4.55458 14.9145C4.60809 14.861 4.67944 14.8312 4.75674 14.8312C4.83404 14.8312 4.89944 14.861 4.9589 14.9145ZM11.5232 29.3293L9.59079 31.2628C9.59079 31.2628 9.56106 31.2866 9.56106 31.2926C9.55512 31.2926 9.54323 31.2747 9.52539 31.2628L1.7362 23.4694C1.7362 23.4694 1.71836 23.4218 1.7362 23.398L3.66863 21.4646L11.5292 29.3293H11.5232ZM1.62323 28.6868L3.15134 27.1579L5.8389 29.8469L4.3108 31.3759C4.3108 31.3759 4.25134 31.3937 4.2335 31.3759L1.62323 28.7701V28.6928V28.6868ZM21.6908 13.9865L13.9908 21.6847L11.3032 18.9957L18.9973 11.2974L21.6849 13.9865H21.6908ZM31.5254 4.0692L31.3767 4.29527L29.8486 5.82421L27.1611 3.13519L28.6892 1.60625C28.6892 1.60625 28.7546 1.5884 28.7724 1.60625L31.3827 4.21198L31.5313 4.06325L31.5254 4.0692ZM21.4767 3.65276L23.4092 1.71929H23.4805L31.2876 9.54838C31.2876 9.56028 31.2876 9.57218 31.2757 9.58408L29.3432 11.5176L21.4827 3.65276H21.4767ZM30.8297 15.682L28.4454 18.0676C28.3978 18.1152 28.3205 18.1449 28.2432 18.1449C28.1659 18.1449 28.0946 18.1152 28.047 18.0676L14.9243 4.94373C14.8708 4.89019 14.8411 4.8188 14.8411 4.74741C14.8411 4.67602 14.8708 4.59868 14.9243 4.55109L17.3086 2.16547C17.3621 2.11193 17.4335 2.08218 17.5108 2.08218C17.5881 2.08218 17.6535 2.11193 17.707 2.16547L30.8297 15.2953C30.9367 15.4024 30.9367 15.5868 30.8297 15.6939V15.682Z" fill="#7F7F7F"/>
</g>
<defs>
<clipPath id="clip0_17_22">
<rect width="33" height="33" fill="white"/>
</clipPath>
</defs>
</svg>
