<svg width="61" height="61" viewBox="0 0 61 61" fill="none" xmlns="http://www.w3.org/2000/svg">
<g clip-path="url(#clip0_61_301)">
    <path fill-rule="evenodd" clip-rule="evenodd" d="M31.0175 13C35.2314 13 38.6492 16.4365 38.6492 20.6733C38.6492 24.9101 35.2314 28.3466 31.0175 28.3466C26.8037 28.3466 23.3859 24.9101 23.3859 20.6733C23.3859 16.4365 26.8037 13 31.0175 13ZM31.0175 15.3538C28.0913 15.3538 25.7269 17.7429 25.7269 20.6733C25.7269 23.6038 28.103 25.9929 31.0175 25.9929C33.9321 25.9929 36.3082 23.6038 36.3082 20.6733C36.3082 17.7429 33.9321 15.3538 31.0175 15.3538ZM45.9415 41.8103C46.1405 42.8342 45.8712 43.8934 45.2158 44.7054C44.5603 45.5057 43.5653 45.9765 42.5353 45.9765C37.1978 46.0118 24.8607 46.0118 19.5232 46.0118C18.4698 46.0118 17.4748 45.541 16.8076 44.729C16.1405 43.9169 15.8712 42.8459 16.0702 41.8103C16.0702 41.8103 16.0702 41.8103 16.0702 41.7985C17.5099 34.8195 23.6551 29.5353 31.0175 29.5353C38.38 29.5353 44.5369 34.8078 45.9298 41.8103H45.9415ZM43.6356 42.2575C42.4534 36.3377 37.2446 31.8773 31.0175 31.8773C24.7905 31.8773 19.5817 36.3377 18.3644 42.2575C18.3059 42.5988 18.3878 42.9519 18.6102 43.2225C18.8326 43.4932 19.1603 43.6462 19.5115 43.6462C24.849 43.6462 37.1744 43.6462 42.5119 43.6109C42.8513 43.6109 43.1791 43.4579 43.3898 43.199C43.6005 42.9401 43.6941 42.587 43.6239 42.2575H43.6356Z" fill="black"/>
</g>
</svg>
