<svg width="33" height="33" viewBox="0 0 33 33" fill="none" xmlns="http://www.w3.org/2000/svg">
<g clip-path="url(#clip0_17_30)">
<path d="M26.7799 16.3398C26.499 14.0837 24.7066 12.3149 22.4392 12.0546C21.9242 12.0012 21.4092 12.0346 20.9009 12.148C19.7104 10.9599 18.0985 10.2858 16.4131 10.2791C14.7276 10.2791 13.1091 10.9332 11.9119 12.1213C11.6443 12.0746 11.3701 12.0479 11.0959 12.0479C8.54098 12.0346 6.40073 13.9836 6.17332 16.52C5.94592 19.0631 7.70494 21.3525 10.2264 21.7997V27.2664C10.2264 28.1875 10.9755 28.9284 11.8918 28.9284H21.0949C22.0179 28.9284 22.7603 28.1808 22.7603 27.2664V21.773C25.3286 21.3125 27.0943 18.9296 26.7732 16.3398H26.7799ZM11.9788 27.1863V24.75H21.0213V27.1863H11.9788ZM22.4058 20.071C21.5965 20.2045 21.0079 20.912 21.0213 21.733V23.0413H11.9788V21.733C11.9854 20.912 11.4036 20.2045 10.5943 20.071C8.95565 19.8107 7.79189 18.3355 7.92566 16.6802C8.05942 15.0315 9.45058 13.7567 11.1093 13.77C11.2966 13.77 11.4838 13.7834 11.6644 13.8167C12.1928 13.9169 12.7345 13.7567 13.1225 13.3829C13.9919 12.5085 15.1758 12.0146 16.4131 12.0146C17.6504 12.0146 18.8342 12.5085 19.7037 13.3829C20.0983 13.79 20.6802 13.9636 21.2353 13.8434C21.5698 13.77 21.9175 13.7567 22.2586 13.7967C23.8371 13.9769 25.041 15.2919 25.0744 16.8738C25.1145 18.4557 23.9709 19.824 22.4058 20.0777V20.071Z" fill="#7F7F7F"/>
<path d="M29.9435 1.46177H15.6573C15.1088 0.554005 14.1123 0 13.0422 0H3.05655C1.3711 0 0 1.36833 0 3.05036V29.9563C0 31.6384 1.3711 33.0067 3.05655 33.0067H29.9501C31.6356 33.0067 33.0067 31.6384 33.0067 29.9563V4.51214C33.0067 2.8301 31.6356 1.46177 29.9501 1.46177H29.9435ZM31.2544 4.51214V6.72148C30.8464 6.52124 30.3983 6.42112 29.9435 6.42112H18.9747C18.4797 6.42112 18.0316 6.14078 17.8109 5.70024L16.5602 3.21056H29.9435C30.6658 3.21056 31.2544 3.79794 31.2544 4.51881V4.51214ZM31.2544 29.9563C31.2544 30.6772 30.6658 31.2579 29.9435 31.2579H3.05655C2.33421 31.2579 1.74564 30.6705 1.74564 29.9496V3.05036C1.74564 2.32949 2.33421 1.74211 3.05655 1.74211H13.0622C13.5572 1.74211 14.012 2.02245 14.2327 2.46299L16.2458 6.48119C16.7608 7.51578 17.8176 8.1699 18.9747 8.1699H29.9435C30.6658 8.1699 31.2544 8.75728 31.2544 9.47816V29.9563Z" fill="#7F7F7F"/>
</g>
<defs>
<clipPath id="clip0_17_30">
<rect width="33" height="33" fill="white"/>
</clipPath>
</defs>
</svg>
