<svg width="27" height="33" viewBox="0 0 27 33" fill="none" xmlns="http://www.w3.org/2000/svg">
<g clip-path="url(#clip0_17_20)">
<path d="M24.5791 32.9997H17.8785C17.4182 32.9997 17.0416 32.6426 17.0416 32.2062V22.7534C17.0416 22.3454 16.7308 22.045 16.2944 22.045H10.861C10.4306 22.045 10.1138 22.3397 10.1138 22.7534V32.2062C10.1138 32.6426 9.73722 32.9997 9.27695 32.9997H2.42085C1.06398 32.9997 0 31.9909 0 30.7044V12.7962C0 12.1898 0.251052 11.6287 0.723268 11.1867L11.7994 0.685383C12.1999 0.266012 12.7917 0.0166558 13.4253 -0.000345709C14.0828 -0.0286816 14.7224 0.232009 15.1946 0.679716L26.2528 11.164C26.725 11.555 26.994 12.1501 26.994 12.7962V30.7044C26.994 31.9909 25.93 32.9997 24.5732 32.9997H24.5791ZM18.7153 31.4128H24.5791C25.0095 31.4128 25.3263 31.1181 25.3263 30.7044V12.7962C25.3263 12.6091 25.2606 12.4391 25.153 12.3541C25.135 12.3371 25.1171 12.3201 25.0992 12.3088L14.017 1.80749C13.8616 1.66581 13.6883 1.5978 13.4671 1.59213C13.2878 1.59213 13.1264 1.66581 13.0128 1.78482L1.90082 12.3088C1.73943 12.4618 1.67368 12.6091 1.67368 12.7962V30.7044C1.67368 31.1125 1.9845 31.4128 2.42085 31.4128H8.44012V22.7534C8.44012 21.4669 9.5041 20.4582 10.861 20.4582H16.2944C17.6513 20.4582 18.7153 21.4669 18.7153 22.7534V31.4128Z" fill="white"/>
</g>
<defs>
<clipPath id="clip0_17_20">
<rect width="27" height="33" fill="white"/>
</clipPath>
</defs>
</svg>
