<svg width="45" height="82" viewBox="0 0 45 82" fill="none" xmlns="http://www.w3.org/2000/svg">
<path d="M8 1H37C40.866 1 44 4.13401 44 8V74C44 77.866 40.866 81 37 81H8C4.13401 81 1 77.866 1 74V8C1 4.13401 4.13401 1 8 1Z" stroke="white" stroke-width="2"/>
<g clip-path="url(#clip0_27_5)">
<path d="M33.9799 31.96C33.5599 31.54 32.8699 31.54 32.4499 31.96L23.8799 40.53V18.08C23.8799 17.48 23.3899 17 22.7999 17C22.2099 17 21.7199 17.49 21.7199 18.08V40.52L13.1399 31.96C12.7199 31.54 12.0299 31.54 11.6099 31.96C11.1899 32.38 11.1899 33.07 11.6099 33.49L21.9599 43.84C21.9599 43.84 21.9999 43.89 22.0199 43.91C22.2299 44.12 22.5099 44.23 22.7799 44.23C23.0599 44.23 23.3299 44.12 23.5399 43.91C23.5599 43.89 23.5799 43.87 23.5999 43.84L33.9499 33.49C34.3699 33.07 34.3699 32.38 33.9499 31.96H33.9799Z" fill="white"/>
<path d="M11.24 60.09H11.13C10.83 60.09 10.55 60.2 10.33 60.42C10.11 60.64 10 60.91 10 61.28C10 61.59 10.12 61.86 10.33 62.08C10.55 62.3 10.82 62.41 11.13 62.41H11.24C11.55 62.41 11.82 62.3 12.04 62.08C12.26 61.86 12.37 61.59 12.37 61.21C12.37 60.9 12.25 60.63 12.04 60.41C11.83 60.19 11.55 60.08 11.24 60.08V60.09Z" fill="white"/>
<path d="M14.25 62.45C14.52 62.45 14.77 62.35 14.96 62.16C15.16 61.97 15.27 61.72 15.27 61.44V59.53H16.82C18 59.53 18.91 59.21 19.52 58.57C20.05 58.04 20.32 57.35 20.32 56.53C20.32 55.71 20.05 55.02 19.53 54.49C18.91 53.85 18 53.53 16.82 53.53H14.26C13.98 53.53 13.73 53.64 13.54 53.84C13.35 54.03 13.25 54.28 13.25 54.55V61.43C13.25 61.71 13.35 61.95 13.54 62.14C13.73 62.33 13.98 62.43 14.25 62.43V62.45ZM18.29 56.53C18.29 56.83 18.21 57.04 18.04 57.2C17.79 57.44 17.35 57.56 16.71 57.56H15.26V55.5H16.71C17.07 55.5 17.37 55.54 17.59 55.61C18.08 55.78 18.29 56.05 18.29 56.53Z" fill="white"/>
<path d="M27.3998 54.97C26.5598 54.02 25.4298 53.54 24.0298 53.54H21.7698C21.4898 53.54 21.2398 53.65 21.0498 53.85C20.8598 54.04 20.7598 54.29 20.7598 54.56V61.39C20.7598 61.67 20.8598 61.91 21.0498 62.1C21.2398 62.29 21.4898 62.39 21.7598 62.39H24.0198C25.4198 62.39 26.5498 61.91 27.3798 60.96C27.7498 60.54 28.0298 60.06 28.2198 59.53C28.3998 59.01 28.4898 58.48 28.4898 57.96C28.4898 57.44 28.3998 56.9 28.2198 56.39C28.0398 55.86 27.7598 55.38 27.3898 54.97H27.3998ZM22.7898 55.49H23.9098C24.7098 55.49 25.3298 55.71 25.8098 56.17C26.2698 56.62 26.4898 57.21 26.4898 57.96C26.4898 58.71 26.2698 59.3 25.8098 59.75C25.3298 60.21 24.7098 60.43 23.9098 60.43H22.7898V55.49Z" fill="white"/>
<path d="M30.2002 62.45C30.4702 62.45 30.7202 62.35 30.9102 62.16C31.1102 61.97 31.2202 61.72 31.2202 61.44V58.94H34.1802C34.4402 58.94 34.6802 58.84 34.8702 58.67C35.0602 58.49 35.1602 58.24 35.1602 57.97C35.1602 57.7 35.0602 57.46 34.8702 57.27C34.6802 57.08 34.4402 56.98 34.1702 56.98H31.2102V55.49H34.5702C34.8302 55.49 35.0702 55.39 35.2602 55.22C35.4502 55.04 35.5502 54.79 35.5502 54.52C35.5502 54.25 35.4502 54.01 35.2602 53.82C35.0702 53.63 34.8302 53.53 34.5702 53.53H30.1902C29.9102 53.53 29.6602 53.64 29.4702 53.84C29.2802 54.03 29.1802 54.28 29.1802 54.55V61.43C29.1802 61.71 29.2802 61.95 29.4702 62.14C29.6602 62.33 29.9102 62.43 30.1802 62.43L30.2002 62.45Z" fill="white"/>
</g>
<defs>
<clipPath id="clip0_27_5">
<rect width="25.56" height="45.45" fill="white" transform="translate(10 17)"/>
</clipPath>
</defs>
</svg>
