<svg width="35" height="40" viewBox="0 0 35 40" fill="none" xmlns="http://www.w3.org/2000/svg">
<g clip-path="url(#clip0_17_34)">
<path d="M29.5662 40H5.43375C2.43897 40 0 37.5394 0 34.4993V8.85996C0 5.82826 2.43067 3.35923 5.43375 3.35923H7.87272V1.34369C7.87272 0.604661 8.47002 0 9.20005 0C9.93008 0 10.5274 0.604661 10.5274 1.34369V3.35923H16.1602V1.34369C16.1602 0.604661 16.7575 0 17.4876 0C18.2176 0 18.8149 0.604661 18.8149 1.34369V3.35923H24.4477V1.34369C24.4477 0.604661 25.045 0 25.7751 0C26.5051 0 27.1024 0.604661 27.1024 1.34369V3.35923H29.5414C32.5361 3.35923 34.9751 5.81986 34.9751 8.85996V34.4993C34.9751 37.531 32.5444 40 29.5414 40H29.5662ZM2.66295 14.8982V34.5077C2.66295 36.0529 3.90732 37.3126 5.43375 37.3126H29.5662C31.0927 37.3126 32.337 36.0529 32.337 34.5077V14.8982H2.66295ZM2.66295 12.2024H32.337V8.85996C32.337 7.31472 31.0927 6.05501 29.5662 6.05501H5.43375C3.90732 6.05501 2.66295 7.31472 2.66295 8.85996V12.2024ZM27.0028 34.1046H24.5805C23.8504 34.0962 23.2697 33.4915 23.2697 32.7609C23.2697 32.0302 23.8587 31.4256 24.5805 31.4172H27.0111C27.7412 31.4256 28.3219 32.0302 28.3219 32.7609C28.3219 33.4915 27.7412 34.0962 27.0111 34.1046H27.0028ZM18.6739 34.1046H16.2515C15.5215 34.0962 14.9407 33.4915 14.9407 32.7609C14.9407 32.0302 15.5297 31.4256 16.2515 31.4172H18.6822C19.4122 31.4256 19.9929 32.0302 19.9929 32.7609C19.9929 33.4915 19.4122 34.0962 18.6822 34.1046H18.6739ZM10.4195 34.1046H7.99716C7.26713 34.0962 6.68642 33.4915 6.68642 32.7609C6.68642 32.0302 7.26713 31.4256 7.99716 31.4172H10.4278C11.1579 31.4256 11.7386 32.0302 11.7386 32.7609C11.7386 33.4915 11.1579 34.0962 10.4278 34.1046H10.4195ZM27.0028 27.2937H24.5805C23.8504 27.2853 23.2697 26.6807 23.2697 25.95C23.2697 25.2194 23.8587 24.6147 24.5805 24.6063H27.0111C27.7412 24.6147 28.3219 25.2194 28.3219 25.95C28.3219 26.6807 27.7412 27.2853 27.0111 27.2937H27.0028ZM18.6739 27.2937H16.2515C15.5215 27.2853 14.9407 26.6807 14.9407 25.95C14.9407 25.2194 15.5297 24.6147 16.2515 24.6063H18.6822C19.4122 24.6147 19.9929 25.2194 19.9929 25.95C19.9929 26.6807 19.4122 27.2853 18.6822 27.2937H18.6739ZM10.4195 27.2937H7.99716C7.26713 27.2853 6.68642 26.6807 6.68642 25.95C6.68642 25.2194 7.26713 24.6147 7.99716 24.6063H10.4278C11.1579 24.6147 11.7386 25.2194 11.7386 25.95C11.7386 26.6807 11.1579 27.2853 10.4278 27.2937H10.4195ZM27.0028 20.4913H24.5805C23.8504 20.4829 23.2697 19.8782 23.2697 19.1476C23.2697 18.417 23.8587 17.8123 24.5805 17.8039H27.0111C27.7412 17.8123 28.3219 18.417 28.3219 19.1476C28.3219 19.8782 27.7412 20.4829 27.0111 20.4913H27.0028ZM18.6656 20.4913H16.2432C15.5132 20.4829 14.9324 19.8782 14.9324 19.1476C14.9324 18.417 15.5215 17.8123 16.2432 17.8039H18.6739C19.4039 17.8123 19.9846 18.417 19.9846 19.1476C19.9846 19.8782 19.4039 20.4829 18.6739 20.4913H18.6656ZM10.4195 20.4913H7.99716C7.26713 20.4829 6.68642 19.8782 6.68642 19.1476C6.68642 18.417 7.26713 17.8123 7.99716 17.8039H10.4278C11.1579 17.8123 11.7386 18.417 11.7386 19.1476C11.7386 19.8782 11.1579 20.4829 10.4278 20.4913H10.4195Z" fill="#000000"/>
</g>
</svg>
