<svg width="30" height="33" viewBox="0 0 30 33" fill="none" xmlns="http://www.w3.org/2000/svg">
<g clip-path="url(#clip0_17_24)">
<path d="M29.8996 15.1785C29.6316 12.5831 28.3992 10.47 26.4099 8.8122C25.4923 8.04445 24.4073 7.64358 23.2485 7.43975C23.2485 7.39219 23.2485 7.37181 23.2485 7.35822C23.3557 7.19516 23.4562 7.03889 23.5633 6.87582C24.6953 5.1161 25.4588 3.22727 25.5258 1.09386C25.5392 0.523136 25.3115 0.251364 24.7957 0.18342C22.9471 -0.0747637 21.0918 -0.129118 19.29 0.428016C17.1333 1.10065 15.3852 2.26928 14.7154 4.6269C14.5077 5.33351 14.4207 6.06051 14.3738 6.80109C14.0657 5.99256 13.6839 5.25878 13.282 4.5182C12.6323 3.3224 11.7147 2.37119 10.6028 1.62382C10.2411 1.37922 9.81918 1.33166 9.49098 1.65779C9.14939 1.99071 9.14939 2.41196 9.33693 2.84C9.4307 3.05742 9.59145 3.22048 9.76559 3.38354C10.0804 3.66891 10.4019 3.94747 10.6966 4.25322C11.9491 5.52375 12.7261 7.06606 13.1815 8.84618C12.7395 8.60837 12.3644 8.37737 11.9692 8.20072C9.7656 7.18157 7.45481 6.95056 5.29808 8.07842C1.90893 9.85853 0.0736989 12.7733 2.17669e-05 16.7344C-0.0401658 18.9425 0.442085 21.0759 1.05829 23.1618C1.96921 26.1989 3.34898 28.9981 5.76693 31.1383C6.71134 31.974 7.77631 32.6127 9.02882 32.8505C10.8975 33.2174 12.6725 32.8505 14.3403 31.9604C14.9029 31.6615 15.3718 31.6479 15.9277 31.974C17.8969 33.0951 19.9464 33.3465 22.0764 32.4836C23.858 31.7702 25.2445 30.5268 26.2626 28.9302C28.9284 24.7517 30.4086 20.2199 29.8996 15.1785ZM16.2827 5.29275C16.9726 3.30201 18.5131 2.46631 20.4488 2.16057C21.5004 1.99071 22.5519 2.07904 23.6303 2.04506C23.0811 3.9203 22.3108 5.63246 20.8038 6.90979C20.5158 7.16118 20.1675 7.25631 19.8259 7.36501C18.5131 7.81344 17.2606 8.41813 15.9612 9.07039C15.9344 7.7455 15.8607 6.49534 16.2827 5.29275ZM28.1916 18.7183C27.8232 21.4904 27.1132 24.1674 25.7602 26.6269C24.7689 28.4206 23.4762 29.9154 21.6008 30.8122C20.1809 31.4984 18.7676 31.4169 17.3476 30.8122C16.9659 30.6491 16.5841 30.4929 16.1889 30.3502C15.3249 30.0377 14.4809 30.0648 13.6236 30.4521C12.6658 30.8801 11.708 31.2946 10.6363 31.3218C9.12929 31.3557 7.91027 30.6763 6.80511 29.7251C4.73545 27.9246 3.6102 25.5398 2.78636 22.9784C2.18354 21.1099 1.78837 19.2075 1.85535 17.2304C1.73478 14.7029 2.55193 12.5423 4.37377 10.8029C5.34496 9.87212 6.5238 9.39652 7.84329 9.1791C9.84597 8.84618 11.5205 9.72264 13.1547 10.6671C14.2398 11.2989 15.2311 11.3125 16.3363 10.7554C17.5218 10.1507 18.6939 9.51881 20.0335 9.28781C23.0543 8.75785 25.9746 10.205 27.361 12.9635C28.2854 14.7844 28.4595 16.7208 28.1983 18.7115L28.1916 18.7183Z" fill="#7F7F7F"/>
</g>
<defs>
<clipPath id="clip0_17_24">
<rect width="30" height="33" fill="white"/>
</clipPath>
</defs>
</svg>
