<svg width="20" height="20" viewBox="0 0 20 20" fill="none" xmlns="http://www.w3.org/2000/svg">
<g clip-path="url(#clip0_23_491)">
<path d="M10 0C9.4027 0 8.91892 0.483784 8.91892 1.08108V8.91892H1.08108C0.483784 8.91892 0 9.4027 0 10C0 10.5973 0.483784 11.0811 1.08108 11.0811H8.91892V18.9189C8.91892 19.5162 9.4027 20 10 20C10.5973 20 11.0811 19.5162 11.0811 18.9189V11.0811H18.9189C19.5162 11.0811 20 10.5973 20 10C20 9.4027 19.5162 8.91892 18.9189 8.91892H11.0811V1.08108C11.0811 0.483784 10.5973 0 10 0Z" fill="#1B1B1B"/>
</g>
<defs>
<clipPath id="clip0_23_491">
<rect width="20" height="20" fill="white"/>
</clipPath>
</defs>
</svg>
