<svg width="20" height="20" viewBox="0 0 20 20" fill="none" xmlns="http://www.w3.org/2000/svg">
<g clip-path="url(#clip0_17_51)">
<path fill-rule="evenodd" clip-rule="evenodd" d="M10.0022 0C15.5237 0 20 4.4763 20 10.0022C20 15.5281 15.5237 20.0044 9.9978 20.0044C4.47189 20.0044 0 15.5237 0 10.0022C0 4.48071 4.4763 0 10.0022 0ZM5.04961 10.1301C4.67916 9.71996 4.71003 9.08931 5.12018 8.72326C5.53032 8.35281 6.16097 8.38368 6.52701 8.79383L9.01874 11.5458L14.4035 5.98456C14.7872 5.58765 15.4179 5.57883 15.8148 5.96692C16.2117 6.35061 16.2205 6.98126 15.8324 7.37817L9.71114 13.7023C9.71114 13.7023 9.68027 13.7332 9.66703 13.7464C9.2613 14.1169 8.63065 14.086 8.2602 13.6759L5.05402 10.1345L5.04961 10.1301Z" fill="white" fill-opacity="0.4"/>
</g>
</svg>
