<svg version="1.2" xmlns="http://www.w3.org/2000/svg" viewBox="0 0 30 33" width="34" height="34">
	<g>
		<path fill="#FFF" fill-rule="evenodd" class="s0" d="m15.02 0c4.21 0 7.63 3.44 7.63 7.67 0 4.24-3.42 7.68-7.63 7.68-4.22 0-7.63-3.44-7.63-7.68 0-4.23 3.41-7.67 7.63-7.67zm0 2.35c-2.93 0-5.29 2.39-5.29 5.32 0 2.93 2.37 5.32 5.29 5.32 2.91 0 5.29-2.39 5.29-5.32 0-2.93-2.38-5.32-5.29-5.32zm14.92 26.46c0.2 1.02-0.07 2.08-0.72 2.9-0.66 0.8-1.65 1.27-2.68 1.27-5.34 0.03-17.68 0.03-23.02 0.03-1.05 0-2.05-0.47-2.71-1.28-0.67-0.81-0.94-1.88-0.74-2.92q0 0 0-0.01c1.44-6.98 7.59-12.26 14.95-12.26 7.36 0 13.52 5.27 14.91 12.27zm-2.31 0.45c-1.18-5.92-6.39-10.38-12.61-10.38-6.23 0-11.44 4.46-12.66 10.38-0.06 0.34 0.03 0.69 0.25 0.96 0.22 0.27 0.55 0.43 0.9 0.43 5.34 0 17.66 0 23-0.04 0.34 0 0.67-0.15 0.88-0.41 0.21-0.26 0.3-0.61 0.23-0.94z"/>
	</g>
</svg>