<svg width="61" height="61" viewBox="0 0 61 61" fill="none" xmlns="http://www.w3.org/2000/svg">
<path fill-rule="evenodd" clip-rule="evenodd" d="M44.9784 13.0279C47.2482 13.1725 48.89 14.091 50.5545 15.3206C54.1634 17.9918 55.7876 22.4736 54.6325 26.7408C53.4724 31.0298 49.8383 34.1784 45.2886 34.8293C44.7641 34.904 44.237 34.9571 43.7074 34.986C43.1828 35.0125 42.6557 34.9932 42.0656 34.9932V28.4622C42.6608 28.4019 43.2812 28.3489 43.899 28.2742C46.653 27.939 48.1712 26.3864 48.141 23.9442C48.1132 21.5599 46.5925 20.0628 43.8688 19.7469C43.2736 19.6794 42.6759 19.636 42 19.5734V13.0279C42.9937 13.0279 43.9797 12.9652 44.9784 13.0279Z" fill="white"/>
<path d="M13 23V48H19V37.5223L13 23Z" fill="white"/>
<path d="M13 18.8647V13H17.976L30 37.2754L28.634 40H23.825L13 18.8647Z" fill="white"/>
<path d="M30.5508 35.0328L27 27.3224L33.5004 13H38V48H31.7509V32.8973L30.5508 35.0328Z" fill="white"/>
<path d="M30.5 61C13.6816 61 0 47.3184 0 30.5C0 13.6816 13.6816 0 30.5 0C47.3184 0 61 13.6816 61 30.5C61 47.3184 47.3184 61 30.5 61ZM30.5 1.70745C14.6231 1.70745 1.70745 14.6231 1.70745 30.5C1.70745 46.3769 14.6231 59.2925 30.5 59.2925C46.3769 59.2925 59.2925 46.3769 59.2925 30.5C59.2925 14.6231 46.3769 1.70745 30.5 1.70745Z" fill="white"/>
</svg>
