<svg width="151" height="255" viewBox="0 0 151 255" fill="none" xmlns="http://www.w3.org/2000/svg">
<g clip-path="url(#clip0_7_33)">
<path d="M24.0619 191.305L23.9841 177.362L17.2059 188.715H13.8915L7.14918 177.738V191.305H0.251282V164.994H6.3894L15.6564 180.179L24.6961 164.994H30.8342L30.9119 191.305H24.0559H24.0619Z" fill="white"/>
<path d="M53.8551 186.19H42.7036L40.6336 191.299H33.0238L44.6659 164.988H52.0124L63.6904 191.299H55.931L53.8611 186.19H53.8551ZM51.6714 180.704L48.2793 172.282L44.8872 180.704H51.6655H51.6714Z" fill="white"/>
<path d="M65.0066 179.576V164.994H72.4668V179.355C72.4668 183.868 74.3514 185.671 77.4802 185.671C80.6091 185.671 82.4518 183.868 82.4518 179.355V164.994H89.7984V179.576C89.7984 187.431 85.2037 191.83 77.4025 191.83C69.6012 191.83 65.0066 187.431 65.0066 179.576Z" fill="white"/>
<path d="M106.37 184.316H102.302V191.305H94.8416V164.994H106.897C114.094 164.994 118.61 168.713 118.61 174.729C118.61 178.603 116.726 181.456 113.447 183.038L119.137 191.305H111.15L106.364 184.316H106.37ZM106.448 170.856H102.302V178.561H106.448C109.535 178.561 111.084 177.135 111.084 174.729C111.084 172.324 109.541 170.856 106.448 170.856Z" fill="white"/>
<path d="M121.362 178.15C121.362 170.259 127.578 164.469 136.02 164.469C144.461 164.469 150.677 170.259 150.677 178.15C150.677 186.041 144.461 191.83 136.02 191.83C127.578 191.83 121.362 186.041 121.362 178.15ZM143.139 178.15C143.139 173.601 140.01 170.635 136.02 170.635C132.029 170.635 128.9 173.607 128.9 178.15C128.9 182.692 132.029 185.665 136.02 185.665C140.01 185.665 143.139 182.698 143.139 178.15Z" fill="white"/>
<path d="M30.7025 212.047C30.7025 219.61 24.8994 224.373 15.77 224.373H11.0438V232.407H0V199.721H15.77C24.8994 199.721 30.7025 204.485 30.7025 212.047ZM19.563 212.047C19.563 209.666 18.1092 208.215 15.0701 208.215H11.0438V215.873H15.0701C18.1092 215.873 19.563 214.423 19.563 212.041V212.047Z" fill="white"/>
<path d="M33.4605 216.064C33.4605 206.168 41.2737 198.975 51.9466 198.975C62.6195 198.975 70.4328 206.168 70.4328 216.064C70.4328 225.961 62.6195 233.154 51.9466 233.154C41.2737 233.154 33.4605 225.961 33.4605 216.064ZM59.2932 216.064C59.2932 210.973 56.0148 207.893 51.9466 207.893C47.8785 207.893 44.6001 210.973 44.6001 216.064C44.6001 221.156 47.8785 224.236 51.9466 224.236C56.0148 224.236 59.2932 221.156 59.2932 216.064Z" fill="white"/>
<path d="M103.145 223.86V232.407H73.0531V225.639L88.0275 208.269H73.5198V199.721H102.398V206.49L87.4233 223.86H103.151H103.145Z" fill="white"/>
<path d="M135.296 223.86V232.407H105.203V225.639L120.178 208.269H105.67V199.721H134.548V206.49L119.574 223.86H135.302H135.296Z" fill="white"/>
<path d="M138.526 199.721H149.57V232.407H138.526V199.721Z" fill="white"/>
<path d="M8.59695 247.963H1.49565V254.791H0.299133V240.215H9.61997V241.236H1.49565V246.93H8.59695V247.963Z" fill="white"/>
<path d="M13.6103 254.791H12.4078V240.215H13.6103V254.791Z" fill="white"/>
<path d="M27.1848 241.236H22.2312V254.791H21.0287V241.236H16.0752V240.215H27.1908V241.236H27.1848Z" fill="white"/>
<path d="M40.4421 254.791H39.2456L30.9179 242.209L30.888 242.22V254.791H29.6855V240.215H30.888L39.2157 252.78L39.2456 252.768V240.215H40.4421V254.791Z" fill="white"/>
<path d="M52.497 247.736H45.4675V253.782H53.526V254.791H44.277V240.215H53.4782V241.236H45.4735V246.709H52.503V247.73L52.497 247.736Z" fill="white"/>
<path d="M64.4682 251.216C64.4682 250.404 64.175 249.747 63.5947 249.258C63.0144 248.768 61.9674 248.327 60.4658 247.933C58.8326 247.527 57.6121 247.008 56.8105 246.381C56.0028 245.754 55.602 244.889 55.602 243.778C55.602 242.668 56.0567 241.731 56.96 241.039C57.8634 240.346 59.0539 240 60.5256 240C61.9974 240 63.2836 240.412 64.1989 241.242C65.1143 242.071 65.5749 243.11 65.5749 244.363H64.3784C64.3784 243.367 64.0374 242.561 63.3554 241.946C62.6734 241.331 61.7281 241.021 60.5256 241.021C59.3231 241.021 58.4138 241.277 57.7677 241.791C57.1216 242.304 56.7925 242.955 56.7925 243.743C56.7925 244.53 57.0916 245.103 57.6839 245.587C58.2762 246.064 59.3351 246.5 60.8547 246.876C62.452 247.282 63.6545 247.819 64.4622 248.488C65.2698 249.156 65.6706 250.058 65.6706 251.192C65.6706 252.326 65.198 253.311 64.2588 253.985C63.3195 254.66 62.0991 254.994 60.5914 254.994C59.0838 254.994 57.8155 254.63 56.7387 253.908C55.6618 253.185 55.1234 252.093 55.1234 250.643H56.3199C56.3199 251.801 56.7387 252.648 57.5762 253.185C58.4138 253.723 59.4189 253.985 60.5974 253.985C61.776 253.985 62.7153 253.735 63.4152 253.233C64.1152 252.732 64.4682 252.057 64.4682 251.21V251.216Z" fill="white"/>
<path d="M76.8162 251.216C76.8162 250.404 76.523 249.747 75.9427 249.258C75.3624 248.768 74.3155 248.327 72.8138 247.933C71.1806 247.527 69.9602 247.008 69.1585 246.381C68.3508 245.754 67.95 244.889 67.95 243.778C67.95 242.668 68.4047 241.731 69.3081 241.039C70.2114 240.346 71.402 240 72.8737 240C74.3454 240 75.6316 240.412 76.547 241.242C77.4623 242.071 77.923 243.11 77.923 244.363H76.7264C76.7264 243.367 76.3854 242.561 75.7034 241.946C75.0214 241.331 74.0762 241.021 72.8737 241.021C71.6712 241.021 70.7618 241.277 70.1157 241.791C69.4696 242.304 69.1405 242.955 69.1405 243.743C69.1405 244.53 69.4397 245.103 70.0319 245.587C70.6302 246.064 71.6831 246.5 73.2027 246.876C74.8001 247.282 76.0025 247.819 76.8102 248.488C77.6178 249.156 78.0187 250.058 78.0187 251.192C78.0187 252.326 77.5461 253.311 76.6068 253.985C75.6675 254.66 74.4471 254.994 72.9395 254.994C71.4319 254.994 70.1636 254.63 69.0867 253.908C68.0098 253.185 67.4714 252.093 67.4714 250.643H68.6679C68.6679 251.801 69.0867 252.648 69.9243 253.185C70.7618 253.723 71.7669 253.985 72.9455 253.985C74.124 253.985 75.0633 253.735 75.7632 253.233C76.4632 252.732 76.8162 252.057 76.8162 251.21V251.216Z" fill="white"/>
<path d="M96.0023 250.255C95.8407 251.777 95.3083 252.947 94.4049 253.77C93.5015 254.594 92.2691 255 90.7017 255C89.0445 255 87.7224 254.427 86.7412 253.275C85.7601 252.123 85.2635 250.595 85.2635 248.697V246.327C85.2635 244.435 85.7541 242.907 86.7412 241.749C87.7224 240.591 89.0445 240.012 90.7017 240.012C92.3589 240.012 93.5195 240.418 94.4169 241.23C95.3143 242.041 95.8407 243.217 95.9963 244.769H94.7998C94.6382 243.534 94.2254 242.602 93.5673 241.976C92.9033 241.349 91.9461 241.033 90.6957 241.033C89.4454 241.033 88.3565 241.516 87.6027 242.489C86.8429 243.462 86.466 244.733 86.466 246.309V248.703C86.466 250.296 86.8429 251.58 87.6027 252.547C88.3625 253.514 89.3915 253.997 90.6957 253.997C91.9999 253.997 92.9093 253.693 93.5673 253.084C94.2254 252.475 94.6382 251.538 94.7938 250.261H95.9903L96.0023 250.255Z" fill="white"/>
<path d="M109.774 248.697C109.774 250.571 109.254 252.093 108.219 253.257C107.184 254.421 105.796 255.006 104.055 255.006C102.314 255.006 100.974 254.427 99.9567 253.257C98.9397 252.087 98.4252 250.571 98.4252 248.697V246.327C98.4252 244.459 98.9337 242.937 99.9508 241.767C100.968 240.597 102.332 240.012 104.043 240.012C105.754 240.012 107.172 240.597 108.213 241.767C109.254 242.937 109.774 244.459 109.774 246.327V248.697ZM108.572 246.303C108.572 244.739 108.171 243.48 107.375 242.507C106.579 241.534 105.467 241.057 104.049 241.057C102.631 241.057 101.584 241.54 100.8 242.507C100.023 243.474 99.6337 244.739 99.6337 246.303V248.697C99.6337 250.273 100.023 251.544 100.806 252.511C101.59 253.478 102.673 253.961 104.055 253.961C105.437 253.961 106.585 253.478 107.381 252.517C108.177 251.55 108.572 250.279 108.572 248.697V246.303Z" fill="white"/>
<path d="M120.68 250.678H114.016L112.49 254.791H111.246L116.792 240.215H117.928L123.438 254.791H122.194L120.68 250.678ZM114.399 249.658H120.297L117.366 241.689L114.399 249.658Z" fill="white"/>
<path d="M135.81 250.255C135.649 251.777 135.116 252.947 134.213 253.77C133.31 254.594 132.077 255 130.51 255C128.853 255 127.53 254.427 126.549 253.275C125.568 252.123 125.072 250.595 125.072 248.697V246.327C125.072 244.435 125.562 242.907 126.549 241.749C127.53 240.591 128.853 240.012 130.51 240.012C132.167 240.012 133.328 240.418 134.225 241.23C135.122 242.041 135.649 243.217 135.804 244.769H134.608C134.446 243.534 134.033 242.602 133.375 241.976C132.711 241.349 131.754 241.033 130.504 241.033C129.253 241.033 128.165 241.516 127.411 242.489C126.651 243.462 126.274 244.733 126.274 246.309V248.703C126.274 250.296 126.651 251.58 127.411 252.547C128.171 253.514 129.2 253.997 130.504 253.997C131.808 253.997 132.717 253.693 133.375 253.084C134.033 252.475 134.446 251.538 134.602 250.261H135.798L135.81 250.255Z" fill="white"/>
<path d="M149.534 254.791H148.338V248.082H140.028V254.791H138.831V240.215H140.028V247.061H148.338V240.215H149.534V254.791Z" fill="white"/>
<path fill-rule="evenodd" clip-rule="evenodd" d="M108.506 31.2953C113.89 31.6534 117.785 33.9276 121.733 36.9717C130.294 43.5854 134.147 54.6817 131.407 65.2467C128.655 75.8655 120.034 83.661 109.242 85.2726C107.997 85.4576 106.747 85.5889 105.491 85.6606C104.246 85.7262 102.996 85.6785 101.596 85.6785V69.5085C103.008 69.3593 104.48 69.228 105.945 69.043C112.478 68.2133 116.08 64.3693 116.008 58.3227C115.942 52.4194 112.335 48.7127 105.873 47.9308C104.462 47.7636 103.044 47.6562 101.44 47.501V31.2953C103.798 31.2953 106.137 31.1401 108.506 31.2953Z" fill="white"/>
<path d="M32.3537 56.9618V116.693H48.9135V91.6594L32.3537 56.9618Z" fill="white"/>
<path d="M32.3537 45.7819V31.2893H43.9479L71.9643 91.2774L68.7816 98.0104H57.5762L32.3537 45.7819Z" fill="white"/>
<path d="M74.7701 85.0517L65.7245 66.2376L82.2842 31.2893H93.7468V116.693H77.8272V79.8408L74.7701 85.0517Z" fill="white"/>
<path d="M76.194 149.272C34.9442 149.272 1.38797 115.792 1.38797 74.6359C1.38797 33.4799 34.9442 0 76.194 0C117.444 0 151 33.4799 151 74.6359C151 115.792 117.444 149.272 76.194 149.272ZM76.194 4.17827C37.2535 4.17827 5.57577 35.7839 5.57577 74.6359C5.57577 113.488 37.2535 145.094 76.194 145.094C115.135 145.094 146.812 113.488 146.812 74.6359C146.812 35.7839 115.135 4.17827 76.194 4.17827Z" fill="white"/>
</g>
</svg>
